<svg width="225" height="36" viewBox="0 0 225 36" fill="none" xmlns="http://www.w3.org/2000/svg">
<g filter="url(#filter0_d_2178_333)">
<path d="M16.184 27.432C12.608 27.432 9.812 26.436 7.796 24.444C5.78 22.452 4.772 19.608 4.772 15.912V1.8H10.604V15.696C10.604 18.096 11.096 19.824 12.08 20.88C13.064 21.936 14.444 22.464 16.22 22.464C17.996 22.464 19.376 21.936 20.36 20.88C21.344 19.824 21.836 18.096 21.836 15.696V1.8H27.596V15.912C27.596 19.608 26.588 22.452 24.572 24.444C22.556 26.436 19.76 27.432 16.184 27.432ZM33.3591 27V1.8H38.1831L53.0511 19.944H50.7111V1.8H56.4711V27H51.6831L36.7791 8.856H39.1191V27H33.3591ZM62.4333 27V1.8H68.2653V27H62.4333ZM79.4658 27V6.552H71.4018V1.8H93.3618V6.552H85.2978V27H79.4658ZM101.864 11.952H113.996V16.488H101.864V11.952ZM102.296 22.32H116.012V27H96.4997V1.8H115.544V6.48H102.296V22.32Z" fill="white"/>
<path d="M127.965 27.288C125.685 27.288 123.909 26.712 122.637 25.56C121.365 24.384 120.729 22.644 120.729 20.34V3.348H126.345V20.268C126.345 21.084 126.561 21.72 126.993 22.176C127.425 22.608 128.013 22.824 128.757 22.824C129.645 22.824 130.401 22.584 131.025 22.104L132.537 26.064C131.961 26.472 131.265 26.784 130.449 27C129.657 27.192 128.829 27.288 127.965 27.288ZM117.741 12.384V8.064H131.169V12.384H117.741ZM135.69 27V7.632H141.054V13.104L140.298 11.52C140.874 10.152 141.798 9.12 143.07 8.424C144.342 7.704 145.89 7.344 147.714 7.344V12.528C147.474 12.504 147.258 12.492 147.066 12.492C146.874 12.468 146.67 12.456 146.454 12.456C144.918 12.456 143.67 12.9 142.71 13.788C141.774 14.652 141.306 16.008 141.306 17.856V27H135.69ZM161.667 27V23.22L161.307 22.392V15.624C161.307 14.424 160.935 13.488 160.191 12.816C159.471 12.144 158.355 11.808 156.843 11.808C155.811 11.808 154.791 11.976 153.783 12.312C152.799 12.624 151.959 13.056 151.263 13.608L149.247 9.684C150.303 8.94 151.575 8.364 153.063 7.956C154.551 7.548 156.063 7.344 157.599 7.344C160.551 7.344 162.843 8.04 164.475 9.432C166.107 10.824 166.923 12.996 166.923 15.948V27H161.667ZM155.763 27.288C154.251 27.288 152.955 27.036 151.875 26.532C150.795 26.004 149.967 25.296 149.391 24.408C148.815 23.52 148.527 22.524 148.527 21.42C148.527 20.268 148.803 19.26 149.355 18.396C149.931 17.532 150.831 16.86 152.055 16.38C153.279 15.876 154.875 15.624 156.843 15.624H161.991V18.9H157.455C156.135 18.9 155.223 19.116 154.719 19.548C154.239 19.98 153.999 20.52 153.999 21.168C153.999 21.888 154.275 22.464 154.827 22.896C155.403 23.304 156.183 23.508 157.167 23.508C158.103 23.508 158.943 23.292 159.687 22.86C160.431 22.404 160.971 21.744 161.307 20.88L162.171 23.472C161.763 24.72 161.019 25.668 159.939 26.316C158.859 26.964 157.467 27.288 155.763 27.288ZM176.911 27L168.774 7.632H174.571L181.339 24.3H178.459L185.479 7.632H190.879L182.707 27H176.911ZM202.255 27.288C200.047 27.288 198.103 26.856 196.423 25.992C194.767 25.128 193.483 23.952 192.571 22.464C191.659 20.952 191.203 19.236 191.203 17.316C191.203 15.372 191.647 13.656 192.535 12.168C193.447 10.656 194.683 9.48 196.243 8.64C197.803 7.776 199.567 7.344 201.535 7.344C203.431 7.344 205.135 7.752 206.647 8.568C208.183 9.36 209.395 10.512 210.283 12.024C211.171 13.512 211.615 15.3 211.615 17.388C211.615 17.604 211.603 17.856 211.579 18.144C211.555 18.408 211.531 18.66 211.507 18.9H195.775V15.624H208.555L206.395 16.596C206.395 15.588 206.191 14.712 205.783 13.968C205.375 13.224 204.811 12.648 204.091 12.24C203.371 11.808 202.531 11.592 201.571 11.592C200.611 11.592 199.759 11.808 199.015 12.24C198.295 12.648 197.731 13.236 197.323 14.004C196.915 14.748 196.711 15.636 196.711 16.668V17.532C196.711 18.588 196.939 19.524 197.395 20.34C197.875 21.132 198.535 21.744 199.375 22.176C200.239 22.584 201.247 22.788 202.399 22.788C203.431 22.788 204.331 22.632 205.099 22.32C205.891 22.008 206.611 21.54 207.259 20.916L210.247 24.156C209.359 25.164 208.243 25.944 206.899 26.496C205.555 27.024 204.007 27.288 202.255 27.288ZM215.354 27V0.287998H220.97V27H215.354Z" fill="#DFCBA7"/>
</g>
<defs>
<filter id="filter0_d_2178_333" x="0.771973" y="0.288086" width="224.198" height="35.1438" filterUnits="userSpaceOnUse" color-interpolation-filters="sRGB">
<feFlood flood-opacity="0" result="BackgroundImageFix"/>
<feColorMatrix in="SourceAlpha" type="matrix" values="0 0 0 0 0 0 0 0 0 0 0 0 0 0 0 0 0 0 127 0" result="hardAlpha"/>
<feOffset dy="4"/>
<feGaussianBlur stdDeviation="2"/>
<feComposite in2="hardAlpha" operator="out"/>
<feColorMatrix type="matrix" values="0 0 0 0 0 0 0 0 0 0 0 0 0 0 0 0 0 0 0.25 0"/>
<feBlend mode="normal" in2="BackgroundImageFix" result="effect1_dropShadow_2178_333"/>
<feBlend mode="normal" in="SourceGraphic" in2="effect1_dropShadow_2178_333" result="shape"/>
</filter>
</defs>
</svg>
